<svg width="21" height="18" viewBox="0 0 21 18" fill="none" xmlns="http://www.w3.org/2000/svg">
<path d="M10.8001 2.93494L10.2877 3.42834C10.3541 3.49721 10.4337 3.55199 10.5217 3.58941C10.6098 3.62683 10.7044 3.64611 10.8001 3.64611C10.8958 3.64611 10.9904 3.62683 11.0785 3.58941C11.1665 3.55199 11.2461 3.49721 11.3125 3.42834L10.8001 2.93494ZM8.35779 15.1009C6.91935 13.9671 5.34713 12.8598 4.09941 11.4555C2.87731 10.0778 2.02335 8.47046 2.02335 6.38586H0.600098C0.600098 8.91546 1.65331 10.8454 3.03576 12.4005C4.3926 13.9282 6.12328 15.1522 7.47632 16.2187L8.35874 15.1009H8.35779ZM2.02335 6.38586C2.02335 4.34586 3.17619 2.63416 4.75031 1.91399C6.27984 1.2147 8.33502 1.39972 10.2877 3.42834L11.3125 2.44249C8.99731 0.0352935 6.3064 -0.362269 4.15824 0.619777C2.05751 1.58095 0.600098 3.81261 0.600098 6.38586H2.02335ZM7.47632 16.2187C7.96307 16.602 8.48493 17.01 9.01344 17.3193C9.54194 17.6277 10.1454 17.8791 10.8001 17.8791V16.4559C10.506 16.4559 10.1606 16.342 9.73171 16.0906C9.30188 15.8401 8.85688 15.4947 8.35779 15.1009L7.47632 16.2187ZM14.1239 16.2187C15.4769 15.1512 17.2076 13.9291 18.5644 12.4005C19.9469 10.8444 21.0001 8.91546 21.0001 6.38586H19.5768C19.5768 8.47046 18.7229 10.0778 17.5008 11.4555C16.2531 12.8598 14.6808 13.9671 13.2424 15.1009L14.1239 16.2187ZM21.0001 6.38586C21.0001 3.81261 19.5436 1.58095 17.442 0.619777C15.2938 -0.362269 12.6048 0.0352935 10.2877 2.44154L11.3125 3.42834C13.2652 1.40067 15.3204 1.2147 16.8499 1.91399C18.424 2.63416 19.5768 4.34491 19.5768 6.38586H21.0001ZM13.2424 15.1009C12.7433 15.4947 12.2983 15.8401 11.8685 16.0906C11.4396 16.3411 11.0942 16.4559 10.8001 16.4559V17.8791C11.4548 17.8791 12.0583 17.6277 12.5868 17.3193C13.1162 17.01 13.6371 16.602 14.1239 16.2187L13.2424 15.1009Z" fill="#282828"/>
</svg>
